<svg xmlns="http://www.w3.org/2000/svg" width="446.8" height="170.4" viewBox="0 0 446.8 170.4"><path d="M32 76.4l-2-.4c-1.069 0-2.269.4-3.6 1.2h-1.2c-.8-.269-1.738-1.068-2.8-2.4l-.8-1.2c.531-.27.8-.538.8-.801l.4-.399c-1.6-1.6-3.869-2.4-6.8-2.4-1.337 0-2.538.27-3.6.8-.8.27-1.869.938-3.2 2l.4.4c.531.531.931 1.063 1.2 1.6l-.4.8c-.8 1.331-2.137 2.4-4 3.2l-1.6-1.2c-1.068-.27-2.668-.4-4.8-.4.8-4 2.731-7.331 5.8-10 3.063-2.662 6.463-4 10.2-4 3.731 0 7.131 1.27 10.2 3.8 3.063 2.538 5 5.663 5.8 9.4zm-16.4 4.4l-2 2c-1.337 1.332-2.8 2.4-4.4 3.2l1.2 1.2v7.2c-5.869-2.138-9.337-6.269-10.4-12.4 2.4 0 4.6-.538 6.6-1.6 2-1.069 3.663-2.669 5-4.8l2 2.8c.262.8.931 1.6 2 2.4zm16.8.8c-.269 2.931-1.538 5.662-3.8 8.199-2.269 2.531-4.869 4.331-7.8 5.399v-7.6l1.2-.801.8-1.199c-2.137-1.338-4.269-3.069-6.4-5.2-2.137-2.138-3.737-4.8-4.8-8l1.2-.4 1.6-.8 1.6-.4c.8 0 1.862.27 3.2.801l1.6 2 1.2 2c2.931 3.201 6.4 5.201 10.4 6.001zm.8-53.6c-1.069 2.138-2.269 3.869-3.6 5.2l-3.2 1.6v.8l.4 1.199c0 1.338-.4 2.4-1.2 3.2-.8 1.069-2.138 1.601-4 1.601l-2.8-.4v20.4h-6.8v-23.2c0-3.462 2.531-6.263 7.6-8.4l13.6-3.6v1.6zm-21.2 121.6v-64l2.8-2 1.6-1.6 1.2 1.2c.531.263.8.531.8.8h.4v56.8l-1.6 1.2-1.2 1.6-.8 2-1.2 3.2c-.538 2.132-1.069 3.199-1.6 3.199-.269.001-.4-.799-.4-2.399zm92-69.2c-.8.263-1.6.6-2.4 1-.8.399-1.738.862-2.8 1.399l-2.8 1.201c-6.138.8-10.8 3.2-14 7.2-2.938 3.463-4.4 7.463-4.4 12 0 1.331.131 2.4.4 3.2.263 1.063.531 1.862.8 2.399l4.8 8.801c2.131 4.53 4 8.931 5.6 13.199.8 2.132 1.6 4.662 2.4 7.601.531 2.399.8 4.8.8 7.2 0 2.931-.4 5.199-1.2 6.8h-30.4c0 2.932-1.2 5.063-3.6 6.399l-7.2 4-8-4.399c-1.6-1.068-2.4-3.068-2.4-6h-6c0 1.6-.469 3.463-1.4 5.6-.938 2.132-2.069 3.463-3.4 4l-2.4 1.602-1.6 1.6c-.269-.269-.537-.669-.8-1.2v-1.6c-.8.8-2 1.2-3.6 1.2-2.137 0-4-.538-5.6-1.602-1.6-1.868-2.4-4.269-2.4-7.198v-2.802l.4-.8.4.8v.4c0 2.131.8 3.862 2.4 5.2 1.063.53 2.4.8 4 .8 1.862 0 3.6-.8 5.2-2.4 1.063-1.067 1.6-2.398 1.6-4v-7.2c0-4 1.2-6.938 3.6-8.801 3.731-2.938 6-4.938 6.8-6 .8 1.863 2.4 3.463 4.8 4.801 3.462 2.132 5.2 5.463 5.2 10v6c0 1.063.263 1.862.8 2.399.8.8 1.6 1.2 2.4 1.2 1.331 0 2.4-.669 3.2-2l.8-1.2v-5.999l-.4-1.2v-1.2l-.4-2.399c-.8-3.2-2.269-4.8-4.4-4.8.263-.801.8-1.737 1.6-2.801.531-.537 1.462-.801 2.8-.801.531 0 .931.132 1.2.4 1.063-2.938 1.731-4.537 2-4.8 1.063-.538 2.531-1.869 4.4-4v21.199h24c0-6.938-1.6-12.399-4.8-16.399-2.4-2.669-5.6-4.537-9.6-5.601-1.869-.27-3.6-.399-5.2-.399 0-2.4.931-4.537 2.8-6.4.531-.269 1.462-.668 2.8-1.199l-.8-2.8c-.538-2.398-.8-4.537-.8-6.398 0-5.338 1.6-10 4.8-14 4.531-4.801 12-8.27 22.4-10.4l5.2-1.6c-.538 0-.869-.069-1-.2-.138-.138-.2-.469-.2-1 0-1.601.531-2.4 1.6-2.4 1.063 0 1.663.2 1.8.601.131.399.2 1 .2 1.8v1.9969999999999999zm-82-42l-.8-1.2-1.6.8v1.6h1.2000000000000002l.4-.4c.262 0 .531-.262.8-.8zm18 106.4c0-.801-.337-1.601-1-2.399-.669-.8-1.538-1.2-2.6-1.2-1.069 0-1.869.263-2.4.8-.269.531-.469 1-.6 1.4-.137.399-.2.862-.2 1.399h6.8zm8 22.4c0 .8-.2 1.463-.6 2-.4.531-1.137.932-2.2 1.2-.8 0-1.469-.27-2-.8-.538-.538-.8-1.338-.8-2.4 0-.269.263-.8.8-1.6.531-.538 1.2-.801 2-.801s1.4.199 1.8.601c.4.401.731 1 1 1.8zm10 0c0 .531-.2 1.063-.6 1.601-.4.531-1.137.932-2.2 1.199-.269 0-.8-.269-1.6-.8-.538-.269-.938-.938-1.2-2 0-.269.4-.8 1.2-1.6 0-.538.531-.938 1.6-1.2 1.063 0 1.8.263 2.2.8.4.531.6 1.2.6 2zm67.6-14.8h-12.4c0 3.2-1.469 6-4.4 8.399l-1.6.801-2.8 1.199c-.538 0-1.2.399-2 1.199l-.4 1.602c-.269 0-.669-.538-1.2-1.602v-1.198c-2.4 0-4.4-.938-6-2.801-.269-.537-.537-1.337-.8-2.398.8.263 1.462.53 2 .8l2.8.399h.8l1.2-.399h.8c.531-.27 1.063-.537 1.6-.8l1.2-1.2c.531-.8.8-1.601.8-2.4s-.269-1.6-.8-2.398l-.4-.8c-.538-.538-1.337-.802-2.4-.802h-2l-1.6.8c.263-1.868 1.2-3.338 2.8-4.399 1.063-.8 2.131-1.2 3.2-1.2h1.2000000000000002l-.4-2c0-1.6.4-3.6 1.2-6l1.6-2.398v1.196l.8 1.2.8 2.4c1.6 1.063 2.8 2.263 3.6 3.6l.4 1.601h5.2v-47.201l2.8 1.6c.8.263 2.262.4 4.4.4v52.8zm.4-89.6l-1.6 2c-1.069 1.069-2 1.601-2.8 1.601h-2l-1.2-.4v-26.801c0-3.73-.269-6-.8-6.8-.8-1.601-2.4-2.4-4.8-2.4l-8-.8c-2.137-.262-3.2-1.2-3.2-2.8 0-.531.262-1.063.8-1.601l1.2-.8v.4c.8 0 1.2.269 1.2.8.263 0 .531.4.8 1.2v.8l-.4.4h.8c1.063 0 3.063-1.332 6-4 1.6-1.063 2.931-1.601 4-1.601l.4.4v2.802h2c.263 0 .663-.131 1.2-.4l.4-1.6c0-.531-.4-.931-1.2-1.2l-2-.8c1.063-1.331 2.4-2.4 4-3.2l1.2-.4v-2.4c.263-.531 1.063-1.331 2.4-2.4v-1.2l1.6-1.601v52.801zm1.6 15.2c0 .531-.669 1.2-2 2-.8.263-1.738.8-2.8 1.601l-3.2-2.801-2-2c-4-3.469-7.869-5.861-11.6-7.199 1.063-4.264 3.2-7.863 6.4-10.801.263-.262.8-.662 1.6-1.199.8-.531 1.731-1.332 2.8-2.4v9.2l-1.6 2.399c1.6 1.069 2.8 2 3.6 2.801l2 1.199c4 3.2 6.263 5.6 6.8 7.2zm3.6 19.6l-.8.4h-.8c-5.6 0-10.538-1.469-14.8-4.398-3.737-2.669-6.668-6.538-8.8-11.601l.4-.399 1.2-.801c2.663-1.337 4.8-2.938 6.4-4.8l1.2.8c0 .264.4.663 1.2 1.2 1.332 1.063 2.131 2.131 2.4 3.2l-.8.799c-1.6.531-2.669 1.2-3.2 2 1.332 2.131 3.263 3.932 5.8 5.4 2.531 1.463 5.531 2.2 9 2.2h1.2l.4-.4v6.4zm4.8-16.8c-.8 1.863-2.8 3.731-6 5.601-2.669 1.331-4.4 2-5.2 2-1.337 0-2.737-.27-4.2-.8-1.469-.538-2.2-1.069-2.2-1.602v-.8l.4-1.6h1.6c3.2 0 6.4-1.738 9.6-5.2l2-1.2 4 3.601zm4.4-14c-3.2 0-6.137.67-8.8 2l-4 4.4-.8-.4-1.6-.8-2.8-2.8c.8-1.063 2.8-2.662 6-4.8 2.663-2.4 4.531-3.601 5.6-3.601.531 0 1.6.4 3.2 1.2l3.2 1.601v3.2zm12.4 1.2l-.8.8-3.6 2.4-3.6 2.4c-1.337 0-2.668-.669-4-2l-2-2.4 2.4-1.6c.8-.264 1.331-.663 1.6-1.2l.8-.4c0-1.063-1.869-2.663-5.6-4.8-1.869-.8-3.6-1.462-5.2-2-1.869-.262-3.6-.4-5.2-.4v-7.2c5.331 0 10.331 1.337 15 4 4.663 2.669 8.063 6.8 10.2 12.4zm.4 12.4c-.269 2.131-1.469 4.531-3.6 7.2-.8 1.331-1.6 2.53-2.4 3.6l-3.6 4h-2v-9.2c.262 0 .663-.269 1.2-.8l.8-1.2c-3.2-1.337-6.138-3.6-8.8-6.8-2.668-2.4-4-4-4-4.8s.731-1.601 2.2-2.4c1.462-.8 2.331-1.2 2.6-1.2 1.063 1.338 2.131 2.47 3.2 3.4 1.063.932 2.4 2.063 4 3.4 2.662 2.131 6.131 3.731 10.4 4.8zm-13.6 63.2l-1.6 1.6-1.2 1.2c-.8 1.331-1.337 3.063-1.6 5.2l-.8 2c-.269.53-.668.8-1.2.8-.538 0-.8-.669-.8-2v-61.2c0-.8-.137-1.6-.4-2.399l-.8-1.601 1.2-.399 1.6-1.601 2.4-2 1.6.8 1.6 1.2v58.4zm17.2-118.4c0 2.938-2.4 4.4-7.2 4.4-2.4 0-4.337.337-5.8 1-1.469.668-2.6 1.668-3.4 3v18.8l-3.2-1.601-4.8-1.6v-39.599l2 2.399.4 1.2c.8.8 1.463 1.738 2 2.8l.4 1.601h1c.4 0 .862.199 1.4.6.531.4 1.063 1.27 1.6 2.6-1.069 0-1.869.139-2.4.4-.537.27-.8.669-.8 1.2 0 .8.263 1.469.8 2l.8.399h.8c.263 0 .6-.199 1-.6s.6-.862.6-1.4l-.4-1.6h1.2c1.332.538 3.6 2.27 6.8 5.2.8.8 1.6 1.2 2.4 1.2h1.6l.8-.801-1.2-1.199-.4-1.2c0-.531.063-.862.2-1 .131-.131.6-.2 1.4-.2 1.6.001 2.4.67 2.4 2.001zm31.2 119.6h5.2c0-6.938-1.738-12.399-5.2-16.399-2.4-2.669-5.6-4.537-9.6-5.601-1.337-.27-2.938-.399-4.8-.399 0-3.2 1.331-5.601 4-7.2l2-.398-.4-.803-.4-2.8c0-2.399.663-4.8 2-7.2.531-1.337 1.463-2.8 2.8-4.398 1.6-1.602 3.2-3.069 4.8-4.4v1.2c-1.6 4-2.4 7.6-2.4 10.8v1.602l.4 2.398.8 2 .4 2.4 1.6 2.398 3.2 4.801c2.131 3.463 3.863 6.932 5.2 10.399 1.862 4.531 2.8 8.8 2.8 12.8 0 2.4-.269 4.531-.8 6.4h-35.6c0 3.2-1.469 5.862-4.4 8-1.069.531-2.538 1.2-4.4 2-.8 0-1.6.531-2.4 1.6l-.4 1.2-1.2-1.2-.4-.8.4-.8c-.8 0-1.6-.27-2.4-.8-.8-.27-1.6-.538-2.4-.801-2.4-1.338-4-3.068-4.8-5.199l-1.2-2v-3.602c0-1.337.063-2.469.2-3.398.131-.938.462-1.938 1-3 1.331-2.669 3.462-4.801 6.4-6.4h1.6-.4l-.8.4c-2.4 1.861-4.269 4-5.6 6.398-.8 1.602-1.2 3.463-1.2 5.602v1.199l.4 1.2c.8 2.4 1.862 4.132 3.2 5.2 1.331.531 2.8.8 4.4.8h1.2l1.2-.398c1.6-.538 2.663-1.139 3.2-1.801.531-.669.8-1.537.8-2.601v-.8c0-.27-.069-.469-.2-.601l-.6-.601-.4-.399-1.2-1.199h-3.1999999999999997c.263-2.139 1.462-4 3.6-5.602l2.4-1.199v-.798l-.4-1.2c0-1.338.531-2.669 1.6-4l.8-2c0 .531.263 1.331.8 2.399l1.2 2.4c1.332 1.063 2.4 2.263 3.2 3.6l.4 1.601h4.4c0-4.537 1.731-7.868 5.2-10 1.862-1.338 3.462-2.938 4.8-4.801.531 1.063 2.531 3.063 6 6 2.4 1.601 3.6 4.532 3.6 8.801zm-36.8-15.6c0-.537.262-1.068.8-1.6.531-.538 1.331-.938 2.4-1.2.531 0 1.063.263 1.6.8.263.531.531 1.2.8 2 0 .8-.2 1.4-.6 1.8-.4.4-1 .863-1.8 1.4-.8 0-1.469-.27-2-.8-.538-.538-.938-1.338-1.2-2.4zm156.8-50.4v.8c0 .53-.137.931-.4 1.199l-2 1.2-2 .8-2.398.801-2.8.4h-5.2010000000000005c-1.338 0-2.4-.068-3.199-.2-.801-.137-1.469-.269-2-.399-.537-.138-1.338-.337-2.4-.601-3.736-1.337-7.6-3.199-11.6-5.6l-.801.8c-1.338 1.331-3.469 2-6.4 2l1.201-1.6c.263-.8.463-1.4.6-1.8l.602-1.801v-.399c-.801-3.2-2.27-5.731-4.4-7.601-1.338-1.6-3.469-2.8-6.398-3.6l-1.201-4c-1.338-2.931-3.338-5.73-6-8.4-3.469-3.199-7.601-5.063-12.399-5.6-2.399.538-4.269 1.2-5.601 2-3.736 2.138-5.601 4.669-5.601 7.6l.399 1.601c0 .269.131 1.069.4 2.399.262.801.932 1.869 2 3.2l-5.601 4.4c-1.6-1.862-2.938-3.731-4-5.601-.8-1.6-1.2-3.462-1.2-5.6 0-1.6.262-3 .8-4.2.531-1.2 1.332-2.332 2.4-3.399l2.399-2.801 3.2-3.199 3.601-3.2 2-2c1.33-2.131 2-4.263 2-6.4 0-1.6-.4-3.462-1.2-5.6-.537-1.601-2-3.731-4.399-6.4-1.601 2.138-2.869 4.138-3.801 6-.938 1.869-1.398 3.601-1.398 5.2 0 2.669.799 4.938 2.398 6.8.531.538 1.332 1.2 2.4 2-2.4 1.601-4.537 3.601-6.4 6l-.8 1.601c-4.8.537-9.068 2.269-12.8 5.199-2.4 2.139-4.4 4.938-6 8.4l-1.2 4c-3.469.538-6.137 2.4-8 5.6-1.068 1.338-1.869 3.2-2.4 5.601v.8c0 .8.131 1.863.4 3.2l1.6 1.6c-2.668 0-4.8-.538-6.4-1.6l-.8-1.2c-3.738 2.4-7.6 4.263-11.6 5.6-3.469.801-6.669 1.2-9.6 1.2-2.4 0-4.4-.138-6-.399-1.6-.27-2.938-.801-4-1.601l-2.4-1.2c-.269-.269-.4-.668-.4-1.199v-1.2l.4-.8c.262-.27.663-.538 1.2-.801h.4c.8 0 1.331.531 1.6 1.601v.8l-.4.4v.8l2.8.399 2.8.4c1.6 0 2.731-.068 3.4-.2.663-.138 1.531-.337 2.6-.6 1.6-.538 3.6-1.337 6-2.4 2.4-1.068 4.931-2.8 7.6-5.2l3.2-2.8c2.131-4.263 4.531-7.6 7.2-10 1.331-1.063 3.063-1.862 5.2-2.399 1.862-4.801 4.662-9.063 8.4-12.801 2.663-2.131 5.6-3.861 8.8-5.199 2.131-1.063 3.462-1.601 4-1.601-.538 0-1.069-.399-1.6-1.2-.8-1.33-1.2-3.33-1.2-6 0-1.861 1.063-3.73 3.2-5.6l9.601-8v-1.2c0-1.332-.537-2-1.601-2l-.8.4c-.537.269-.801.669-.801 1.2 0 .537.131 1.067.399 1.6l.4.4c-1.338-.531-2.399-1.2-3.2-2-.537-.8-.8-1.6-.8-2.4 0-.531.131-1.063.4-1.6l.4-1.2c.531-.263.932-.531 1.2-.8l1.601-.4h1.601v.4l.801-.4c-.537-.262-.801-.931-.801-2 0-.8.264-1.6.801-2.4l1.199-1.199.801-2 .8-1.601.399 1.601c.531 1.337 1.2 2.399 2 3.199l.798 1.2v1.2c0 .8-.138 1.469-.399 2l.399.4 1.601-.4 1.601.4c.531 0 .932.269 1.2.8l.8 1.2.399 1.6c0 .8-.399 1.6-1.199 2.4-.538.537-1.601 1.199-3.2 2l.399-.4.399-1.6c0-.531-.269-.933-.799-1.2l-.4-.4h-.801c-.799 0-1.199.668-1.199 2 0 .27.132.668.4 1.2.53.8 3.063 2.8 7.6 6 3.199 2.669 4.8 5.2 4.8 7.6 0 2.67-.399 4.67-1.199 6l-1.602 1.2c.263 0 1.463.538 3.601 1.601 3.462 1.337 6.399 3.067 8.8 5.199 3.463 3.2 6.399 7.47 8.801 12.801 2.131.269 4 1.067 5.6 2.399 2.132 2.138 4.4 5.47 6.801 10l3.199 2.8c2.4 2.132 5.063 4 8 5.601 4 1.862 7.863 2.8 11.602 2.8l3.199-.4 2.397-.401.4-.4-.799-1.6c0-1.069.529-1.601 1.6-1.601h.4c.262 0 .529.132.799.4l.8 1.601zm-126.4 66c0-.537-.337-1.27-1-2.199-.669-.938-1.538-1.4-2.6-1.4-1.069 0-1.869.263-2.4.8-.538 1.063-.8 2-.8 2.802h6.8v-.003zm48.4-66.4l-1.6 1.6c-1.068 1.063-2.4 1.862-4 2.4l-4.4-4c-3.2-2.938-5.6-5.337-7.2-7.2l-.8.8-.8 1.601v.399l-1.6-.399c-.8 0-1.469.131-2 .399-.538 0-1.2.531-2 1.601l2 1.6h3.5999999999999996c0 .531.262 1.063.8 1.6l.8.801c.263-.538.8-1.069 1.6-1.601l1.6-1.2 2.4 2 2.4 2.4-2.8 2.799c-1.869 1.863-3.337 4-4.4 6.4-1.6-.27-3.2-1.601-4.8-4l-1.6-3.2h-.4c-.8 0-2-.668-3.6-2-3.469-3.737-5.738-5.737-6.8-6 1.063-.269 3.332-2.137 6.8-5.6 1.6-1.332 2.8-2 3.6-2l.8-2.4c1.331-2.931 3.063-4.8 5.2-5.6l2 2.8c1.332 2.669 2.932 5.069 4.8 7.2 1.6 1.6 3.2 3.063 4.8 4.399 1.6 1.332 3.462 2.801 5.6 4.401zm12.8 24l-13.2 11.6v38.4h-12c0 3.2-1.469 6-4.4 8.399l-4.4 2c-.8 0-1.469.399-2 1.199l-.4 1.602c-.538 0-.8-.538-.8-1.602l-.4-1.199c-1.338 0-2.4-.199-3.2-.601-.8-.399-1.6-1.138-2.4-2.2l-.8-.8-.4-1.6c.8.263 1.6.53 2.4.8l2.4.399h.8l1.6-.399h.4c1.063-.537 1.931-1.2 2.6-2 .663-.8 1-1.601 1-2.4s-.269-1.6-.8-2.398l-.8-.8c-.269-.537-.8-.801-1.6-.801h-2.8c-.538.264-.938.531-1.2.801.531-1.868 1.462-3.338 2.8-4.399 1.063-.8 2.262-1.2 3.6-1.2h.8l-.4-2c0-1.6.4-3.6 1.2-6l1.6-2.399v.801l.8 1.6.8 2.4c1.6 1.063 2.663 2.263 3.2 3.6l.8 1.602h5.2v-34l12.8-12.805v-9.2c-.537 0-.938-.138-1.199-.399v-1.2l5.599-3.201 1.201 1.2c1.063 0 1.6.663 1.6 2v15.2zm-2.8-20.8l-1.199 1.6-1.6 1.2c-2.938 1.862-5.602 3.331-8 4.399v10.4l.398.4c.263.8.531 1.462.801 2l-5.602 4-.798-.399-.8-1.2-1.2-.8v-17.2l2.4-1.2 2.399-1.199c3.463-2.139 6.531-4.538 9.199-7.2l1.601 2c1.333 1.061 2.132 2.13 2.401 3.199zm-1.2-34.8l2 2.4 1.2 2.4c.801 1.6 1.201 3.199 1.201 4.8 0 3.2-1.47 6.399-4.4 9.6-1.868 2.138-4.27 4.138-7.2 6-2.399 1.331-3.868 2-4.399 2l-4.4-4.399c4.531-2.663 8-5.332 10.4-8 1.6-2.131 2.399-4.264 2.399-6.4 0-1.331-.537-2.8-1.601-4.4l-1.6-1.199c.531-.531 1.862-1.2 4-2l2.4-.802zm28 28c-1.068.264-3.338 2.264-6.801 6-1.338 1.332-2.399 2-3.199 2h-.4c-.538 1.601-1.068 2.663-1.602 3.2-1.067 2.4-2.536 3.863-4.398 4.4l-1.6-2.4c-.801-1.6-2.537-3.868-5.2-6.8-2.938-2.938-6.269-5.6-10-8l1.601-2c.531-.262 1.131-.6 1.801-1 .662-.4 1.399-.862 2.199-1.4l4.801 3.601c3.199 2.399 5.6 4.531 7.199 6.399l.399-.4c.263-.27.399-.8.399-1.601v-.799l.801.4h1.2c.531 0 1.131-.138 1.801-.4.662-.269 1.263-.8 1.8-1.6-.537-.27-1.199-.8-2-1.601l-1.601-.399-1.2.4h-.4v-.4c0-.531-.4-1.2-1.199-2l-.801-.4c-.27.8-.801 1.601-1.602 2.4-.536.263-.938.531-1.199.8l-2.398-2-2.801-2 2.398-2.4c1.863-2.131 3.332-4.53 4.4-7.199 1.862.269 3.6 1.736 5.2 4.399l2 3.2.399-.4c.8 0 1.861.801 3.199 2.4 3.205 3.2 5.466 5.062 6.804 5.6zm-23.599 64c-1.602.263-3.339 1.601-5.201 4-.537 1.063-1.199 2.399-2 4v-32.4l-2-2 3.201-2.8 2-2 4 3.199v28.001zm91.199-41.6v55.2c0 2.932-1.199 5.063-3.602 6.399l-7.199 3.601-7.6-4c-1.869-1.068-2.801-3.068-2.801-6h-29.598c0 2.932-1.337 5.063-4 6.399l-6.8 4c-1.068-.537-3.139-1.601-6.2-3.199-3.067-1.602-4.601-4-4.601-7.2h-18.399c2.132-2.4 3.463-4.938 4-7.601 1.063-4 1.601-6.138 1.601-6.399.531-1.601 1.399-2.669 2.6-3.2 1.201-.537 1.801-.938 1.801-1.2v-.4c.531-1.869 1.063-3.2 1.602-4l8-5.2c2.131-1.869 4.262-4.537 6.398-8v34.4c0 1.063.332 1.932 1 2.601.663.662 1.4 1 2.199 1 1.064 0 1.933-.338 2.602-1 .662-.669 1-1.537 1-2.601v-42.4c0-2.938-.27-4.8-.801-5.601-.8-1.338-2.27-2-4.398-2 0-.801.461-1.537 1.398-2.199.932-.669 1.801-1 2.602-1h1.6c.8-2.4 1.602-3.869 2.4-4.4 1.063-.8 2.53-2.269 4.398-4.398v56h36.798v6c0 .8.398 1.462 1.199 2 .264 1.063.932 1.6 2 1.6 1.063 0 2-.4 2.801-1.2s1.199-1.6 1.199-2.398v-65.604c.801-.269 1.463-.668 2-1.2l1.199-.8 2.4 2c.264.531 1.063 1.2 2.398 2 0 .531-.268 1.731-.799 3.601-.266 2.13-.397 4.261-.397 6.399zm-78.8 47.6h6.4v-10.8c-1.6 1.602-2.537 3.463-2.799 5.602l-.4 1.199c-.537.263-.938.662-1.2 1.199-.801.531-1.471 1.462-2.001 2.8zm38.4-15.2c0-2.669 1.332-5.737 4-9.2l8-9.601c3.732-4.537 6.264-9.338 7.6-14.399.264.531.664 1.2 1.201 2 .531.8.799 2.263.799 4.399 0 1.601-.398 3.463-1.197 5.601-.539 1.862-1.34 3.463-2.4 4.8 1.33 1.602 2.4 2.8 3.199 3.602.801 1.6 1.201 3.063 1.201 4.398 0 1.063-.139 2.132-.4 3.2l-1.203 1.6h-.8c0-1.6-.668-3.067-2-4.398-1.068-1.869-3.199-2.801-6.4-2.801-2.938 0-5.736 1.463-8.398 4.399-1.869 2.4-2.8 4.531-2.8 6.4 0 1.861.8 4 2.399 6.398 1.861 1.863 4.131 2.801 6.799 2.801 1.332 0 2.664-.469 4-1.399 1.332-.938 2-1.938 2-3 0-.8-.268-1.469-.799-2-1.068-2.138-2.139-3.2-3.201-3.2l-.799.4-1.201 1.199c-.799 1.063-1.336 1.73-1.6 2 0 1.331.4 2 1.201 2h1.199l1.6-.8-.4 1.2c-.535.263-1.197.4-2 .4-.535 0-1.066-.27-1.6-.801-.537-.27-.799-.537-.799-.801 0-1.337.398-2.537 1.199-3.6 1.332-.8 2.398-1.2 3.199-1.2 1.602 0 2.801.531 3.602 1.601.799.801 1.199 2 1.199 3.601 0 1.6-1.068 3.063-3.199 4.399-1.07.801-2.27 1.199-3.602 1.199-1.867 0-3.867-.938-6-2.8-2.398-1.865-3.599-4.397-3.599-7.597zm16.4-104.4c0-1.331.801-2 2.398-2h1.202v1.2c0 .538-.139.938-.4 1.2l-.801 1.199.801.801h1.199c.801 0 1.732-.4 2.801-1.2 3.199-2.663 5.463-4.4 6.801-5.2h.801l-.4 1.6c0 .538.131 1.069.4 1.601l1.198.399c.801 0 1.332-.131 1.6-.399l.801-.8v-1.2c0-.263-.201-.601-.6-1-.401-.401-1.139-.601-2.201-.601.264-1.063.801-1.861 1.6-2.399.803-.531 1.602-.8 2.4-.8l.8-1.601c.262-1.332.932-2.399 2-3.2l.4-1.6c.262-1.063.662-2 1.199-2.8v40.8l-2 .8c-.801.27-1.738.538-2.801.8l-2.398 1.601v-14.401l-.4-4.399c-.537-1.332-1.6-2.332-3.201-3-1.6-.663-3.736-1-6.398-1-4.539-.001-6.801-1.464-6.801-4.401zm3.6 42.8c2.131-5.6 5.732-9.862 10.801-12.8 4.531-2.4 9.602-3.6 15.199-3.6v7.2c-2.137 0-4 .139-5.6.4-1.602.27-3.469.938-5.602 2-3.736 1.869-5.6 3.469-5.6 4.8l.802.4 2 1.2 2 1.6-1.6 2.4c-1.602 1.331-2.803 2-3.602 2l-4.398-2.4c-2.668-1.6-4.137-2.662-4.4-3.2zm0 12.4c3.732-.8 7.201-2.4 10.4-4.8 2.662-2.139 4.932-4.4 6.801-6.801.531 0 1.461.4 2.799 1.2 1.063.538 1.73 1.337 2 2.4 0 .8-1.068 2.399-3.199 4.8-3.201 3.2-6.398 5.463-9.6 6.8l1.199 1.2c.262.263.662.531 1.199.8v9.2h-2c-2.668-2.399-4.801-4.868-6.398-7.399-1.602-2.538-2.67-5-3.201-7.4zm12.4-13.6v-3.2l3.199-1.6 3.602-1.2c.531 0 2.264 1 5.201 3 2.93 2 5.063 3.801 6.398 5.4l-3.201 2.8c-1.066.531-1.736.932-2 1.2l-4-4.4c-2.398-1.331-5.469-2-9.199-2zm4.801 14l4-3.6 2 1.2c2.93 3.462 6.131 5.2 9.6 5.2h1.602v1.6l.397.8c-.27 0-.398.132-.398.4-.539.263-1.07.531-1.602.8-1.869.8-3.469 1.2-4.801 1.2-.537 0-2.137-.669-4.799-2-2.937-1.6-4.937-3.469-5.999-5.6zm4.398 16.8v-6.4l.803.4h1.197c2.934 0 5.732-.669 8.4-2 2.662-1.338 4.801-3.2 6.4-5.601-.537-.269-1.602-.938-3.199-2-.27 0-.539-.269-.801-.8 0-.8.662-1.869 2-3.2l2.398-1.6v-.399c1.863 1.862 4.133 3.462 6.801 4.8l1.199 1.2c-1.6 4.8-4.469 8.663-8.6 11.601-4.137 2.931-8.998 4.399-14.6 4.399h-1.197l-.801-.4zm10.401-26.8l6-4-2-2.399v-9.2c2.131 1.069 3.732 2.27 4.801 3.6 3.199 2.938 5.199 6.538 6 10.801-3.201 1.337-6.938 3.73-11.201 7.199l-2.8 2.799-2.398 2c-.271 0-1.201-.538-2.803-1.601-1.336-.8-2.137-1.469-2.398-2 .531-1.868 2.799-4.268 6.799-7.199zm-5.2-8v-52.8l1.602 1.601.398 1.199c1.063.801 1.73 1.601 2 2.4l.4 1.2v1.2l2.8 1.6c.264 0 .662.138 1.201.4l1.199 1.6-2 .8c-.801.27-1.199.668-1.199 1.2 0 .538.131 1 .398 1.4.264.399.662.6 1.199.6h1.602c.262-.262.531-.662.801-1.2l-.4-.8-.398-.8.799-.4c1.063 0 2.264.538 3.6 1.601 2.934 2.668 4.934 4 6 4h1.201l-.4-1.2c0-.531.133-.931.4-1.2l1.6-.8h.801v.399c.801.27 1.199.801 1.199 1.601 0 1.6-1.068 2.538-3.199 2.8l-8 .8c-2.668 0-4.27.8-4.801 2.4l-.398 2.399-.4 4.4v26.8l-1.6.4h-2c-.27 0-1.07-.531-2.4-1.601l-2.005-1.999zm.401 83.6v-46.8c2.131 0 3.461-.139 4-.4l1.6-.399 1.602-1.199v39.6l-2.4 3.2c-.801 1.063-1.469 2.531-2 4.399 0 .801-.139 1.331-.4 1.601l-.398.8h-.4c-.537 0-.938-.269-1.201-.8l-.403-.002zm89.199-64.8l4.801 3.6v67.2c0 2.932-1.201 5.063-3.602 6.399l-6.801 3.601-8-4c-1.6-1.068-2.398-3.068-2.398-6h-49.6c0 1.862-.469 3.8-1.398 5.8-.939 2-2.201 3.263-3.803 3.8l-1.199.8-2.4 2.4c-.537-.269-.799-.669-.799-1.2v-1.6h-3.602c-1.867-.8-3.338-2-4.398-3.601v-1.199l.799.4 1.201.4h1.199c1.861 0 3.6-.8 5.199-2.4 1.063-1.337 1.602-2.668 1.602-4v-7.2c0-4 1.199-6.938 3.6-8.801 3.73-2.398 6-4.398 6.799-6 .803 1.063 2.934 3.063 6.4 6 2.4 1.602 3.6 4.531 3.6 8.801h7.602v-4.4c0-1.068-.27-1.869-.799-2.4-.539-.537-1.471-.938-2.803-1.198.264-1.602 1.201-2.67 2.803-3.2l2-.8.397-2.802c.531-1.067 1.602-2.398 3.199-4 .531 0 1.063-.398 1.6-1.199l.803-1.199v21.2h7.197v-13.2c0-1.869-.799-3.2-2.398-4h-1.602c0-.8.531-1.602 1.602-2.4l1.6-.8 1.602-.4.801-2.8c.531-1.6 1.861-3.068 4-4.398.262 0 .531-.271.799-.802.264-.8.531-1.337.801-1.6v30.399h6.799v-15.601c0-2.938-.137-4.669-.398-5.2-.799-1.6-2.27-2.398-4.4-2.398.264-.801.732-1.47 1.4-2 .662-.538 1.531-.938 2.6-1.2l1.201.399c.262-1.601.662-2.868 1.199-3.801.531-.938 1.6-1.8 3.201-2.6l1.6-1.601c.531-.27.932-.801 1.199-1.601v41.602c0 .801.398 1.463 1.201 2 .529 1.063 1.33 1.601 2.398 1.601.799 0 1.531-.4 2.199-1.2.662-.8 1-1.6 1-2.398v-67.203l.4-.4.398-.4h.4l1.199-1.2zm-67.199-5.6c0-.269.199-.737.6-1.399.4-.669 1-1 1.799-1 .531 0 1.064.131 1.602.399l.398 1.601-.398.8-.799.8c1.33 1.6 4.799 2.8 10.398 3.6 4.531.801 7.33 2.801 8.4 6 .262.801 3.063 2.132 8.398 4 4.801 1.331 7.199 4.263 7.199 8.801l-.798 1.198c-.537-1.338-1.4-2.338-2.6-3-1.201-.669-2.602-1-4.201-1-2.4 0-5.869 1.331-10.4 4-5.066 2.932-9.199 6.801-12.398 11.601 2.398.263 4.131.662 5.199 1.2 1.602.8 2.4 2 2.4 3.6 0 1.331-.537 2.531-1.6 3.601-.803.801-1.602 1.331-2.4 1.601-1.068 0-2-.4-2.801-1.2-.537-.537-.799-1.337-.799-2.398 0-.538.262-.938.799-1.2l1.201-1.2h.799l-1.199 1.2c-.27.263-.4.8-.4 1.6 0 .531.199 1 .602 1.4.398.398.861.6 1.398.6.531 0 1.332-.398 2.4-1.2.531-.8.799-1.6.799-2.398 0-1.069-.668-2.27-2-3.602-.799-.537-1.736-.8-2.799-.8-1.338.531-2.27 1.063-2.801 1.602-1.869 1.861-2.799 4.131-2.799 6.8 0 .8.131 1.73.398 2.8l.4 1.6.398 1.2v1.602h-.801v-1.4s-.137-1-.398-1.8l-.801-2v-2c0-2.938 1.063-6 3.199-9.2l6.4-8c2.131-3.469 3.201-6.8 3.201-10 0-4.8-1.34-8.269-4-10.4l-2.4-1.199-5.201-2.4c-2.395-1.079-3.594-2.548-3.594-4.41zm1.199 68.8h6.398c0-.537-.336-1.27-1-2.199-.668-.938-1.537-1.4-2.6-1.4-1.068 0-1.869.263-2.4.8-.268.531-.398 1-.398 1.4v1.399zm47.199 21.2c0-.8.264-1.6.803-2.398.799-.801 1.861-1.2 3.197-1.2.803 0 1.602.331 2.4 1 .801.662 1.201 1.531 1.201 2.6 0 1.063-.4 2-1.201 2.802-.799.8-1.6 1.198-2.4 1.198-1.066 0-2-.398-2.799-1.198-.8-.804-1.201-1.742-1.201-2.804zm.801-138v-1.6l13.6 3.6c5.6 1.869 8.4 4.538 8.4 8v23.6h-7.199l-.4-20.4h-1.201l-1.6.4c-1.869 0-3.199-.663-4-2-.537-.801-.799-1.863-.799-3.2v-.8l.398-1.2-3.199-1.6c-1.338-1.063-2.668-2.663-4-4.8zm2 52.8c2.131-.269 4-.736 5.6-1.399 1.6-.669 3.201-2.069 4.801-4.2.799-1.068 1.73-2.4 2.799-4 1.064-.531 2.133-.8 3.201-.8.531 0 1 .069 1.4.2.398.137.861.337 1.398.6.531 0 1.063.27 1.602.8-.801 2.663-2.4 5.331-4.801 8-1.602 1.862-3.738 3.601-6.4 5.2l1.201.8 1.199 1.2v7.2c-3.199-.8-5.801-2.4-7.801-4.8-2-2.401-3.398-5.339-4.199-8.801zm.4-4.8c.799-3.469 2.662-6.53 5.602-9.2 2.93-2.662 6.398-4 10.398-4s7.4 1.27 10.199 3.801c2.801 2.537 4.732 5.8 5.801 9.8-1.869 0-3.469.263-4.801.8-.537.263-.938.663-1.199 1.2-1.869-.8-3.201-1.869-4-3.2l-.8-.801c.264-.538.662-1.069 1.201-1.601l.799-.399c-1.068-1.063-2-1.731-2.799-2l-2.4-.8h-2c-2.67 0-4.801.8-6.398 2.399v.4l.799.399-.799 1.601c-.539 1.063-1.471 2-2.803 2.8l-1.197-.8c-1.07-.538-2.271-.8-3.602-.8l-2.001.401zm9.2-38l.801 1.2.799.4h1.201v-1.6l-2-1.2c-.27.8-.538 1.2-.801 1.2zm7.599 42.4c.803-.8 1.465-1.601 2-2.4l.803-1.6.799-1.2c1.332 2.131 3 3.731 5 4.8 2 1.063 4.201 1.601 6.6 1.601-1.066 6.131-4.398 10.263-10 12.398v-7.199l1.201-1.199c-1.338-.538-2.801-1.738-4.4-3.601l-2.003-1.6z"/></svg>